{
.appVersion = "3151";
.formatVersion = 3;
DisplayStrings = (
"ABEGHINOPSVY
abeghinopsvy"
);
date = "2023-01-30 16:36:59 +0000";
familyName = "AM 003";
fontMaster = (
{
customParameters = (
{
name = paramArea;
value = 330;
},
{
name = paramDepth;
value = 19;
}
);
id = m01;
metricValues = (
{
over = 16;
pos = 752;
},
{
over = 16;
pos = 654;
},
{
over = 16;
pos = 442;
},
{
over = -16;
},
{
over = -16;
pos = -284;
},
{
over = -16;
}
);
name = Regular;
}
);
glyphs = (
{
glyphname = A;
lastChange = "2023-01-30 16:49:38 +0000";
layers = (
{
layerId = m01;
shapes = (
{
attr = {
fillColor = (0,255);
};
closed = 1;
nodes = (
(262,587,o),
(216,468,o),
(170,349,c),
(57,39,o),
(57,46,o),
(18,26,c),
(5,26,o),
(-2,13,o),
(-2,13,c),
(-2,0,o),
(11,0,o),
(104,0,c),
(196,0,o),
(216,0,o),
(216,13,c),
(216,13,o),
(209,19,o),
(196,26,c),
(189,26,o),
(170,33,o),
(163,39,c),
(143,46,o),
(143,46,o),
(150,66,c),
(150,92,o),
(170,138,o),
(183,184,c),
(196,217,l),
(308,217,l),
(414,217,l),
(427,191,l),
(453,145,o),
(473,59,o),
(473,52,c),
(467,46,o),
(453,33,o),
(434,26,c),
(420,19,o),
(401,13,o),
(401,6,c),
(401,0,o),
(434,0,o),
(533,0,c),
(651,0,o),
(665,0,o),
(665,13,c),
(665,13,o),
(658,26,o),
(638,33,c),
(605,46,o),
(618,13,o),
(414,554,c),
(374,660,l),
(335,660,l),
(295,666,l),
(275,613,l)
);
},
{
attr = {
fillColor = (0,255);
};
closed = 1;
nodes = (
(401,277,l),
(308,270,l),
(262,270,o),
(222,270,o),
(216,270,c),
(216,277,o),
(236,336,o),
(262,402,c),
(282,475,o),
(302,534,o),
(308,528,c),
(308,528,o),
(328,468,o),
(354,402,c)
);
}
);
width = 664;
}
);
unicode = 65;
},
{
glyphname = B;
lastChange = "2023-01-30 16:49:38 +0000";
layers = (
{
layerId = m01;
shapes = (
{
attr = {
fillColor = (0,255);
};
closed = 1;
nodes = (
(29,654,o),
(9,647,o),
(9,640,c),
(9,640,o),
(22,627,o),
(36,627,c),
(95,614,o),
(88,634,o),
(88,330,c),
(88,66,o),
(88,53,o),
(75,40,c),
(69,33,o),
(49,27,o),
(36,27,c),
(16,20,o),
(9,20,o),
(9,7,c),
(9,0,o),
(16,0,o),
(168,0,c),
(385,0,o),
(438,7,o),
(491,73,c),
(531,112,o),
(544,145,o),
(537,205,c),
(537,238,o),
(531,251,o),
(517,277,c),
(491,310,o),
(438,343,o),
(399,350,c),
(379,357,l),
(412,370,l),
(478,403,o),
(504,442,o),
(504,508,c),
(504,555,o),
(491,588,o),
(458,614,c),
(405,654,o),
(326,667,o),
(108,654,c)
);
},
{
attr = {
fillColor = (0,255);
};
closed = 1;
nodes = (
(366,574,o),
(392,535,o),
(392,489,c),
(392,416,o),
(346,376,o),
(260,370,c),
(214,363,l),
(214,489,l),
(214,614,l),
(260,607,l),
(286,607,o),
(319,601,o),
(333,594,c)
);
},
{
attr = {
fillColor = (0,255);
};
closed = 1;
nodes = (
(392,291,o),
(412,251,o),
(412,185,c),
(412,99,o),
(366,53,o),
(260,46,c),
(214,40,l),
(214,185,l),
(214,330,l),
(260,324,l),
(286,324,o),
(319,317,o),
(339,310,c)
);
}
);
width = 569;
}
);
unicode = 66;
},
{
glyphname = E;
lastChange = "2023-01-30 16:49:38 +0000";
layers = (
{
layerId = m01;
shapes = (
{
attr = {
fillColor = (0,255);
};
closed = 1;
nodes = (
(9,633,o),
(15,633,o),
(35,627,c),
(48,627,o),
(68,620,o),
(75,614,c),
(88,600,o),
(88,594,o),
(88,323,c),
(88,20,o),
(88,39,o),
(48,26,c),
(22,20,o),
(15,20,o),
(15,13,c),
(15,0,o),
(48,0,o),
(253,0,c),
(484,0,l),
(491,20,l),
(491,26,o),
(497,66,o),
(504,99,c),
(510,152,o),
(510,165,o),
(504,171,c),
(497,171,o),
(484,165,o),
(451,112,c),
(418,59,o),
(411,53,o),
(306,53,c),
(213,53,l),
(213,185,l),
(213,317,l),
(286,317,l),
(332,310,o),
(365,310,o),
(365,303,c),
(372,297,o),
(385,277,o),
(392,257,c),
(398,231,o),
(411,218,o),
(418,218,c),
(425,218,o),
(431,231,o),
(431,317,c),
(431,376,o),
(431,422,o),
(431,429,c),
(425,435,o),
(411,429,o),
(405,416,c),
(398,402,o),
(392,389,o),
(385,383,c),
(372,369,o),
(365,369,o),
(293,369,c),
(213,369,l),
(213,488,l),
(213,607,l),
(299,607,l),
(405,600,o),
(418,594,o),
(451,528,c),
(464,488,o),
(477,475,o),
(484,475,c),
(497,475,o),
(497,482,o),
(491,561,c),
(491,607,o),
(484,647,o),
(484,653,c),
(484,653,o),
(372,660,o),
(246,660,c),
(15,660,o),
(9,660,o),
(9,647,c)
);
}
);
width = 547;
}
);
unicode = 69;
},
{
glyphname = G;
lastChange = "2023-01-30 16:49:38 +0000";
layers = (
{
layerId = m01;
shapes = (
{
attr = {
fillColor = (0,255);
};
closed = 1;
nodes = (
(243,660,o),
(164,614,o),
(111,555,c),
(52,482,o),
(32,416,o),
(32,324,c),
(32,225,o),
(58,152,o),
(118,86,c),
(184,20,o),
(269,-13,o),
(388,-13,c),
(474,-13,o),
(533,0,o),
(599,27,c),
(646,46,l),
(646,145,l),
(652,238,l),
(679,251,l),
(705,258,o),
(712,258,o),
(712,271,c),
(712,277,o),
(705,284,o),
(573,277,c),
(448,277,o),
(434,277,o),
(428,264,c),
(428,258,o),
(434,258,o),
(454,251,c),
(467,251,o),
(487,244,o),
(500,238,c),
(520,231,l),
(520,145,l),
(520,60,l),
(500,53,l),
(494,53,o),
(461,46,o),
(428,46,c),
(269,33,o),
(170,132,o),
(164,304,c),
(164,416,o),
(184,489,o),
(243,555,c),
(289,607,o),
(329,621,o),
(401,627,c),
(448,627,o),
(461,621,o),
(494,607,c),
(540,588,o),
(560,561,o),
(586,495,c),
(599,456,o),
(613,442,o),
(619,442,c),
(632,442,l),
(632,535,l),
(632,588,o),
(632,634,o),
(626,640,c),
(626,640,o),
(599,647,o),
(560,660,c),
(494,673,o),
(395,680,o),
(342,673,c)
);
}
);
width = 720;
}
);
unicode = 71;
},
{
glyphname = H;
lastChange = "2023-01-30 16:49:38 +0000";
layers = (
{
layerId = m01;
shapes = (
{
attr = {
fillColor = (0,255);
};
closed = 1;
nodes = (
(3,633,o),
(9,626,o),
(42,620,c),
(69,613,o),
(75,607,o),
(82,593,c),
(88,580,o),
(88,514,o),
(88,316,c),
(88,13,o),
(95,46,o),
(36,26,c),
(22,19,o),
(9,13,o),
(9,6,c),
(9,-1,o),
(36,-1,o),
(154,-1,c),
(280,-1,o),
(293,-1,o),
(293,13,c),
(300,19,o),
(293,19,o),
(286,19,c),
(286,19,o),
(267,26,o),
(247,32,c),
(214,39,o),
(214,39,o),
(207,72,c),
(207,92,o),
(207,151,o),
(207,211,c),
(214,310,l),
(372,310,l),
(531,310,l),
(537,184,l),
(537,46,o),
(537,39,o),
(484,26,c),
(465,19,o),
(451,19,o),
(451,6,c),
(451,-1,o),
(471,-1,o),
(590,-1,c),
(715,-1,o),
(735,-1,o),
(735,13,c),
(735,19,o),
(729,19,o),
(715,26,c),
(676,32,o),
(656,39,o),
(656,59,c),
(656,72,o),
(656,191,o),
(656,336,c),
(656,620,o),
(656,607,o),
(709,620,c),
(722,620,o),
(735,626,o),
(735,633,c),
(735,646,o),
(722,646,o),
(610,646,c),
(537,646,o),
(471,646,o),
(465,646,c),
(438,646,o),
(451,626,o),
(484,620,c),
(524,613,o),
(531,607,o),
(531,494,c),
(531,442,o),
(531,389,o),
(531,376,c),
(531,356,l),
(372,356,l),
(207,356,l),
(214,475,l),
(214,607,o),
(214,607,o),
(267,620,c),
(280,620,o),
(293,633,o),
(293,640,c),
(300,646,o),
(286,646,o),
(187,646,c),
(128,646,o),
(62,646,o),
(42,653,c),
(22,653,o),
(9,653,o),
(9,646,c)
);
}
);
width = 745;
},
{
associatedMasterId = m01;
layerId = "09A57949-D094-4A23-879C-FBAA71805EEF";
name = "30 de ene. de 23 13:37";
shapes = (
{
attr = {
fillColor = (0,255);
};
closed = 1;
nodes = (
(0,0,l),
(500,0,l),
(1000,0,l),
(1000,500,l),
(1000,1000,l),
(500,1000,l),
(0,1000,l),
(0,500,l)
);
},
{
attr = {
fillColor = (0,255);
};
closed = 1;
nodes = (
(998.057,1.963,l),
(500.003,1.953,l),
(1.953,1.953,l),
(1.953,495.468,l),
(1.953,766.902,o),
(2.232,991.024,o),
(2.574,993.516,c),
(3.195,998.047,l),
(500.615,998.047,l),
(998.037,998.047,l),
(998.047,500.004,l)
);
},
{
attr = {
fillColor = (0,255);
};
closed = 1;
nodes = (
(545.294,921.442,o),
(542.969,920.307,o),
(542.969,918.828,c),
(542.969,917.687,o),
(543.658,916.992,o),
(544.79,916.992,c),
(545.792,916.992,o),
(547.77,916.081,o),
(549.185,914.968,c),
(551.758,912.944,l),
(551.758,865.691,l),
(551.758,818.438,l),
(558.35,816.363,l),
(562.322,815.113,o),
(568.899,814.072,o),
(574.903,813.745,c),
(583.47,813.277,o),
(585.806,813.503,o),
(591.577,815.359,c),
(608.595,820.831,o),
(619.218,836.601,o),
(617.938,854.492,c),
(616.876,869.326,o),
(607.199,880.633,o),
(594.074,882.373,c),
(587.946,883.187,o),
(578.542,880.68,o),
(573.2,876.811,c),
(571.084,875.277,o),
(569.239,874.023,o),
(569.101,874.022,c),
(568.961,874.022,o),
(568.848,886.181,o),
(568.848,901.04,c),
(568.848,918.196,o),
(568.491,928.17,o),
(567.871,928.365,c),
(567.334,928.534,o),
(561.511,926.871,o),
(554.932,924.668,c)
);
},
{
attr = {
fillColor = (0,255);
};
closed = 1;
nodes = (
(250.734,908.774,o),
(235.975,891.244,o),
(233.543,869.355,c),
(231.933,854.868,o),
(234.717,843.06,o),
(242.343,832.031,c),
(246.67,825.772,o),
(250.968,822.142,o),
(258.64,818.265,c),
(273.644,810.683,o),
(295.704,811.463,o),
(310.438,820.098,c),
(324.861,828.551,o),
(334.328,846.038,o),
(334.344,864.258,c),
(334.353,874.667,o),
(332.76,881.437,o),
(328.263,890.103,c),
(319.742,906.52,o),
(304.436,915.157,o),
(284.219,914.956,c),
(279.632,914.91,o),
(273.609,914.322,o),
(270.835,913.649,c)
);
},
{
attr = {
fillColor = (0,255);
};
closed = 1;
nodes = (
(54.251,909.562,o),
(54.641,909.281,o),
(60.162,907.911,c),
(63.548,907.071,o),
(65.24,906.045,o),
(66.122,904.297,c),
(67.054,902.451,o),
(67.357,892.032,o),
(67.368,861.606,c),
(67.385,816.039,o),
(68.235,820.59,o),
(59.214,817.978,c),
(56.993,817.335,o),
(55.176,816.215,o),
(55.176,815.488,c),
(55.176,814.419,o),
(59.261,814.168,o),
(76.66,814.167,c),
(95.831,814.166,o),
(98.179,814.339,o),
(98.46,815.774,c),
(98.634,816.659,o),
(98.164,817.383,o),
(97.417,817.383,c),
(96.669,817.383,o),
(93.821,818.047,o),
(91.088,818.858,c),
(86.128,820.332,o),
(86.116,820.345,o),
(85.445,825.225,c),
(85.075,827.913,o),
(85.092,837.145,o),
(85.48,845.737,c),
(86.188,861.361,l),
(110.233,861.101,l),
(134.277,860.84,l),
(134.544,842.392,l),
(134.854,820.863,o),
(134.659,820.24,o),
(126.997,818.276,c),
(123.723,817.437,o),
(122.07,816.502,o),
(122.07,815.489,c),
(122.07,814.153,o),
(124.696,813.97,o),
(143.305,814,c),
(161.929,814.033,o),
(164.575,814.229,o),
(164.838,815.593,c),
(165.05,816.697,o),
(164.108,817.34,o),
(161.583,817.813,c),
(155.579,818.94,o),
(153.327,820.384,o),
(153.249,823.155,c),
(153.21,824.546,o),
(153.24,843.261,o),
(153.316,864.744,c),
(153.472,908.438,o),
(153.148,906.498,o),
(160.514,907.955,c),
(163.081,908.463,o),
(164.649,909.344,o),
(164.852,910.391,c),
(165.137,911.874,o),
(163.32,912.058,o),
(145.816,912.313,c),
(135.173,912.47,o),
(125.45,912.454,o),
(124.211,912.278,c),
(120.431,911.742,o),
(122.021,908.859,o),
(126.596,907.955,c),
(133.368,906.615,o),
(133.752,905.633,o),
(134.093,888.724,c),
(134.259,880.513,o),
(134.208,872.528,o),
(133.98,870.979,c),
(133.567,868.164,l),
(109.509,868.163,l),
(85.449,868.162,l),
(85.734,886.144,l),
(86.055,906.337,o),
(85.855,905.788,o),
(93.561,907.742,c),
(96.395,908.461,o),
(98.265,909.517,o),
(98.46,910.507,c),
(98.743,911.94,o),
(96.992,912.118,o),
(81.858,912.191,c),
(72.554,912.236,o),
(62.845,912.468,o),
(60.282,912.706,c),
(56.673,913.041,o),
(55.49,912.793,o),
(55.034,911.605,c)
);
},
{
attr = {
fillColor = (0,255);
};
closed = 1;
nodes = (
(310.142,896.484,o),
(318.3,871.109,o),
(312.641,848.729,c),
(308.139,830.926,o),
(298.337,821.36,o),
(284.547,821.311,c),
(270.753,821.261,o),
(261.383,828.712,o),
(255.714,844.238,c),
(252.823,852.154,o),
(252.571,871.541,o),
(255.244,880.342,c),
(259.798,895.334,o),
(266.874,903.485,o),
(277.832,906.363,c),
(282.119,907.489,o),
(290.626,906.489,o),
(294.75,904.376,c)
);
},
{
attr = {
fillColor = (0,255);
};
closed = 1;
nodes = (
(407.143,878.894,o),
(401.367,876.763,o),
(401.367,875.462,c),
(401.367,874.676,o),
(403.345,873.104,o),
(405.762,871.968,c),
(410.156,869.902,l),
(410.376,831.924,l),
(410.497,811.035,o),
(410.606,790.141,o),
(410.62,785.491,c),
(410.645,777.037,l),
(406.494,775.523,l),
(404.212,774.691,o),
(402.344,773.442,o),
(402.344,772.747,c),
(402.344,771.763,o),
(406.107,771.484,o),
(419.434,771.484,c),
(428.833,771.484,o),
(436.853,771.484,o),
(437.256,771.484,c),
(437.659,771.484,o),
(437.988,772.03,o),
(437.988,772.696,c),
(437.988,773.363,o),
(435.681,774.525,o),
(432.861,775.279,c),
(427.734,776.649,l),
(427.734,795.878,l),
(427.734,815.106,l),
(433.838,814.253,l),
(446.603,812.468,o),
(459.142,816.647,o),
(467.484,825.469,c),
(474.454,832.838,o),
(476.938,839.692,o),
(476.942,851.562,c),
(476.947,862.307,o),
(475.227,867.267,o),
(469.171,873.97,c),
(459.856,884.279,o),
(445.643,885.445,o),
(432.339,876.992,c),
(429.77,875.359,o),
(427.486,874.023,o),
(427.266,874.023,c),
(427.045,874.023,o),
(426.73,876.076,o),
(426.567,878.586,c),
(426.235,883.677,o),
(425.779,884.005,o),
(420.898,882.666,c)
);
},
{
attr = {
fillColor = (0,255);
};
closed = 1;
nodes = (
(691.53,876.15,o),
(690.581,875.146,o),
(697.613,872.131,c),
(699.952,871.128,o),
(702.149,869.569,o),
(702.496,868.668,c),
(703.37,866.39,o),
(703.261,822.034,o),
(702.378,820.665,c),
(701.983,820.053,o),
(699.774,818.989,o),
(697.47,818.301,c),
(694.797,817.503,o),
(693.383,816.552,o),
(693.563,815.675,c),
(693.795,814.554,o),
(697.094,814.3,o),
(711.426,814.303,c),
(730.384,814.307,o),
(733.235,815.184,o),
(724.121,818.205,c),
(719.238,819.824,l),
(718.932,834.961,l),
(718.764,843.286,o),
(718.914,854.157,o),
(719.267,859.12,c),
(719.907,868.142,l),
(724.877,869.618,l),
(731.125,871.474,o),
(739.297,871.512,o),
(743.619,869.706,c),
(749.665,867.18,o),
(750.447,864.265,o),
(750.809,842.899,c),
(750.984,832.495,o),
(750.867,822.941,o),
(750.549,821.669,c),
(750.106,819.909,o),
(748.909,819.09,o),
(745.542,818.241,c),
(742.318,817.43,o),
(741.199,816.698,o),
(741.422,815.546,c),
(741.589,814.677,o),
(742.489,814,o),
(743.422,814.046,c),
(744.354,814.091,o),
(752.404,814.201,o),
(761.312,814.29,c),
(773.062,814.408,o),
(777.403,814.763,o),
(777.131,815.581,c),
(776.924,816.201,o),
(774.842,817.273,o),
(772.505,817.964,c),
(770.167,818.654,o),
(767.889,819.794,o),
(767.442,820.498,c),
(766.996,821.201,o),
(766.625,831.944,o),
(766.616,844.371,c),
(766.602,866.965,l),
(763.869,872.203,l),
(761.876,876.023,o),
(760.003,878.068,o),
(756.949,879.758,c),
(748.361,884.51,o),
(734.602,883.285,o),
(724.523,876.874,c),
(722.06,875.306,o),
(719.753,874.023,o),
(719.396,874.023,c),
(719.041,874.023,o),
(718.75,876,o),
(718.75,878.418,c),
(718.75,883.792,o),
(718.352,883.839,o),
(705.078,880.034,c)
);
},
{
attr = {
fillColor = (0,255);
};
closed = 1;
nodes = (
(855.527,879.188,o),
(856.527,877.542,o),
(858.104,876.103,c),
(860.227,874.163,o),
(864.397,865.393,o),
(874.193,842.26,c),
(881.467,825.086,o),
(887.703,810.222,o),
(888.052,809.229,c),
(888.835,806.995,o),
(880.611,787.095,o),
(877.885,784.628,c),
(876.047,782.964,o),
(875.977,782.979,o),
(875.977,785.049,c),
(875.977,787.981,o),
(871.743,791.992,o),
(868.648,791.992,c),
(864.366,791.992,o),
(860.528,789.37,o),
(859.532,785.765,c),
(858.257,781.144,o),
(859.102,777.971,o),
(862.466,774.748,c),
(866.486,770.896,o),
(872.974,770.86,o),
(878.711,774.657,c),
(885.187,778.942,o),
(891.15,792.698,o),
(912.268,852.051,c),
(919.187,871.502,o),
(919.99,873.199,o),
(923.471,875.734,c),
(925.222,877.01,o),
(925.893,878.185,o),
(925.482,879.254,c),
(924.956,880.625,o),
(923.082,880.859,o),
(912.628,880.859,c),
(899.048,880.859,o),
(897.349,879.917,o),
(903.929,876.035,c),
(907.341,874.022,o),
(907.451,873.781,o),
(907.014,869.347,c),
(906.649,865.667,o),
(896.94,831.729,o),
(895.803,830.159,c),
(895.176,829.295,o),
(894.296,831.328,o),
(887.346,849.697,c),
(877.831,874.845,o),
(878.061,873.651,o),
(882.338,875.691,c),
(884.463,876.705,o),
(885.697,877.934,o),
(885.52,878.859,c),
(885.275,880.13,o),
(882.944,880.405,o),
(870.877,880.587,c),
(861.538,880.728,o),
(856.301,880.439,o),
(855.882,879.761,c)
);
},
{
attr = {
fillColor = (0,255);
};
closed = 1;
nodes = (
(451.26,868.753,o),
(455.641,864.98,o),
(458.22,859.984,c),
(461.162,854.283,o),
(461.816,841.45,o),
(459.477,835.323,c),
(457.354,829.765,o),
(452.689,824.345,o),
(448.533,822.608,c),
(444.271,820.827,o),
(436.449,820.944,o),
(431.66,822.86,c),
(427.734,824.431,l),
(427.734,846.222,l),
(427.734,868.013,l),
(430.908,869.011,l),
(437.597,871.113,o),
(441.743,871.396,o),
(446.503,870.074,c)
);
},
{
attr = {
fillColor = (0,255);
};
closed = 1;
nodes = (
(605.271,860.518,o),
(605.479,833,o),
(592.589,824.469,c),
(587.172,820.884,o),
(579.108,820.331,o),
(572.819,823.112,c),
(568.212,825.151,l),
(568.738,846.413,l),
(569.265,867.676,l),
(572.474,868.842,l),
(578.045,870.864,o),
(587.838,870.392,o),
(592.263,867.885,c)
);
},
{
attr = {
fillColor = (0,255);
};
closed = 1;
nodes = (
(691.31,688.445,o),
(689.538,686.478,o),
(696.322,684.445,c),
(699.053,683.627,o),
(700.672,682.468,o),
(701.266,680.906,c),
(701.751,679.629,o),
(702.148,658.434,o),
(702.148,633.807,c),
(702.148,589.028,l),
(697.754,587.351,l),
(695.337,586.428,o),
(693.359,585.072,o),
(693.359,584.34,c),
(693.359,583.264,o),
(696.741,583.008,o),
(710.938,583.008,c),
(724.876,583.008,o),
(728.516,583.275,o),
(728.516,584.301,c),
(728.516,585.013,o),
(726.428,586.243,o),
(723.877,587.035,c),
(719.238,588.476,l),
(719.238,612.322,l),
(719.238,636.169,l),
(724.121,638.037,l),
(730.07,640.312,o),
(739.653,640.61,o),
(743.604,638.643,c),
(749.416,635.746,o),
(750.192,632.793,o),
(750.747,611.463,c),
(751.082,598.581,o),
(750.898,591.523,o),
(750.194,590.206,c),
(749.613,589.122,o),
(747.355,587.7,o),
(745.175,587.047,c),
(742.894,586.363,o),
(741.211,585.254,o),
(741.211,584.434,c),
(741.211,583.236,o),
(744.03,583.008,o),
(758.789,583.008,c),
(773.448,583.008,o),
(776.367,583.241,o),
(776.367,584.416,c),
(776.367,585.261,o),
(774.513,586.348,o),
(771.729,587.133,c),
(767.09,588.441,l),
(766.602,612.336,l),
(766.139,634.984,o),
(765.992,636.476,o),
(763.798,640.934,c),
(757.222,654.289,o),
(737.644,655.668,o),
(721.924,643.882,c),
(718.75,641.502,l),
(718.75,668.896,l),
(718.75,696.289,l),
(716.553,696.203,l),
(715.345,696.155,o),
(709.521,694.508,o),
(703.613,692.541,c)
);
},
{
attr = {
fillColor = (0,255);
};
closed = 1;
nodes = (
(265.218,681.608,o),
(257.557,675.061,o),
(254.007,665.57,c),
(251.615,659.182,o),
(251.423,654.417,o),
(253.301,648.175,c),
(256.323,638.133,o),
(262.261,633.349,o),
(278.028,628.25,c),
(291.471,623.903,o),
(296.831,619.925,o),
(298.821,612.817,c),
(303.641,595.604,o),
(287.751,582.409,o),
(271.783,590.366,c),
(266.3,593.099,o),
(262.825,597.533,o),
(259.214,606.411,c),
(257.667,610.214,o),
(256.481,611.816,o),
(255.217,611.816,c),
(253.59,611.816,o),
(253.391,610.74,o),
(253.135,600.586,c),
(252.979,594.409,o),
(253.094,588.378,o),
(253.392,587.183,c),
(254.782,581.584,o),
(281.223,578.344,o),
(292.744,582.36,c),
(305.406,586.774,o),
(313.429,597.888,o),
(314.229,612.124,c),
(314.623,619.146,o),
(314.439,620.032,o),
(311.378,625.89,c),
(307.079,634.113,o),
(301.95,637.626,o),
(287.736,642.081,c),
(273.931,646.408,o),
(270.905,648.269,o),
(268.376,653.984,c),
(262.382,667.535,o),
(274.935,680.925,o),
(288.755,675.723,c),
(293.425,673.966,o),
(298.441,668.136,o),
(302.228,660.068,c),
(304.89,654.395,o),
(306.346,652.344,o),
(307.711,652.344,c),
(309.45,652.344,o),
(309.57,653.226,o),
(309.57,665.993,c),
(309.57,679.377,o),
(309.524,679.673,o),
(307.193,681.2,c),
(304.415,683.021,o),
(291.493,685.5,o),
(285.156,685.43,c),
(282.739,685.402,o),
(278.514,684.835,o),
(275.766,684.168,c)
);
},
{
attr = {
fillColor = (0,255);
};
closed = 1;
nodes = (
(71.289,679.161,o),
(72.16,678.595,o),
(75.253,678.101,c),
(77.433,677.752,o),
(80.072,676.758,o),
(81.119,675.892,c),
(82.952,674.375,o),
(83.024,672.747,o),
(83.046,632.333,c),
(83.071,586.132,o),
(83.397,588.629,o),
(77.148,587.278,c),
(72.827,586.345,o),
(72.266,586.025,o),
(72.266,584.503,c),
(72.266,583.187,o),
(76.545,583.008,o),
(107.833,583.008,c),
(143.399,583.008,l),
(143.944,585.693,l),
(144.243,587.17,o),
(145.17,592.739,o),
(146.004,598.069,c),
(147.228,605.896,o),
(147.278,607.915,o),
(146.27,608.569,c),
(144.885,609.468,o),
(143.374,607.859,o),
(138.379,600.168,c),
(132.96,591.823,o),
(131.81,591.357,o),
(115.653,590.973,c),
(101.562,590.637,l),
(101.562,610.885,l),
(101.562,631.132,l),
(112.781,630.637,l),
(119.594,630.336,o),
(124.574,629.664,o),
(125.464,628.927,c),
(126.269,628.259,o),
(127.871,625.124,o),
(129.024,621.961,c),
(130.467,618.006,o),
(131.642,616.211,o),
(132.79,616.211,c),
(134.268,616.211,o),
(134.532,617.972,o),
(135.089,631.46,c),
(135.436,639.848,o),
(135.478,647.099,o),
(135.185,647.573,c),
(134.11,649.312,o),
(131.765,648.368,o),
(130.652,645.752,c),
(130.024,644.275,o),
(128.639,642.078,o),
(127.573,640.869,c),
(125.762,638.814,o),
(124.857,638.672,o),
(113.6,638.672,c),
(101.562,638.672,l),
(101.562,656.865,l),
(101.562,675.06,l),
(114.502,674.609,l),
(131.471,674.02,o),
(132.812,673.345,o),
(137.563,663.016,c),
(140.169,657.352,o),
(141.606,655.296,o),
(142.969,655.286,c),
(144.731,655.274,o),
(144.79,655.91,o),
(144.145,668.134,c),
(143.771,675.208,o),
(143.24,681.36,o),
(142.964,681.806,c),
(142.688,682.252,o),
(126.449,682.617,o),
(106.876,682.617,c),
(72.011,682.617,o),
(71.289,682.578,o),
(71.289,680.676,c)
);
},
{
attr = {
fillColor = (0,255);
};
closed = 1;
nodes = (
(428.818,649.687,o),
(422.415,644.195,o),
(420.469,637.927,c),
(419.288,634.126,o),
(419.718,625.297,o),
(421.225,622.4,c),
(423.739,617.565,o),
(427.302,615.148,o),
(437.663,611.245,c),
(449.383,606.83,o),
(453.125,603.632,o),
(453.125,598.031,c),
(453.125,595.353,o),
(452.346,593.752,o),
(449.805,591.211,c),
(446.939,588.346,o),
(445.835,587.892,o),
(441.748,587.895,c),
(438.74,587.896,o),
(435.846,588.608,o),
(433.817,589.846,c),
(430.551,591.837,o),
(425.168,599.329,o),
(424.172,603.271,c),
(423.837,604.597,o),
(422.87,605.469,o),
(421.736,605.469,c),
(419.979,605.469,o),
(419.874,604.778,o),
(420.133,594.971,c),
(420.41,584.473,l),
(425.781,582.684,l),
(432.928,580.303,o),
(444.241,580.208,o),
(451.042,582.472,c),
(463.689,586.683,o),
(470.227,601.928,o),
(464.301,613.388,c),
(462.354,617.151,o),
(457.042,620.542,o),
(448.587,623.418,c),
(435.843,627.753,o),
(432.617,630.291,o),
(432.617,635.987,c),
(432.617,641.813,o),
(436.743,645.508,o),
(443.25,645.508,c),
(447.412,645.508,o),
(448.733,645.017,o),
(451.787,642.336,c),
(453.774,640.591,o),
(456.435,636.825,o),
(457.698,633.967,c),
(459.373,630.181,o),
(460.456,628.858,o),
(461.688,629.096,c),
(463.157,629.379,o),
(463.379,630.701,o),
(463.379,639.174,c),
(463.379,648.926,l),
(458.496,650.507,l),
(451.134,652.891,o),
(442.71,653.365,o),
(436.578,651.741,c)
);
},
{
attr = {
fillColor = (0,255);
};
closed = 1;
nodes = (
(563.324,648.155,o),
(554.382,637.069,o),
(551.72,620.605,c),
(549.198,605.014,o),
(555.807,590.947,o),
(568.84,584.161,c),
(573.086,581.95,o),
(574.953,581.61,o),
(583.008,581.579,c),
(590.679,581.549,o),
(593.131,581.933,o),
(597.168,583.793,c),
(602.264,586.141,o),
(607.422,590.406,o),
(607.422,592.272,c),
(607.422,595.028,o),
(605.287,595.446,o),
(600.502,593.628,c),
(595.04,591.553,o),
(586.854,591.248,o),
(581.933,592.936,c),
(573.59,595.798,o),
(567.576,604.221,o),
(566.66,614.327,c),
(566.135,620.117,l),
(590.332,620.117,l),
(614.529,620.117,l),
(614.019,625.746,l),
(613.062,636.303,o),
(606.946,645.639,o),
(598.18,649.928,c),
(591.883,653.009,o),
(583.478,653.852,o),
(577.079,652.043,c)
);
},
{
attr = {
fillColor = (0,255);
};
closed = 1;
nodes = (
(855.796,648.439,o),
(856.496,646.774,o),
(858.781,645.733,c),
(861.594,644.452,o),
(863.232,641.183,o),
(877.414,608.571,c),
(888.318,583.496,l),
(892.157,583.219,l),
(895.996,582.94,l),
(900.778,594.938,l),
(903.409,601.535,o),
(908.31,614.015,o),
(911.67,622.668,c),
(919.171,641.986,o),
(920.362,644.329,o),
(923.387,645.707,c),
(924.704,646.307,o),
(925.781,647.619,o),
(925.781,648.623,c),
(925.781,650.325,o),
(924.937,650.431,o),
(913.33,650.176,c),
(899.845,649.88,o),
(897.914,648.934,o),
(904.297,645.749,c),
(906.438,644.68,o),
(907.833,643.213,o),
(908.03,641.821,c),
(908.281,640.051,o),
(900.976,616.806,o),
(896.298,604.492,c),
(895.482,602.348,o),
(894.429,604.461,o),
(887.626,621.882,c),
(883.367,632.788,o),
(879.883,642.31,o),
(879.883,643.04,c),
(879.883,643.771,o),
(881.201,644.951,o),
(882.812,645.664,c),
(884.463,646.395,o),
(885.742,647.71,o),
(885.742,648.676,c),
(885.742,650.231,o),
(884.442,650.391,o),
(871.745,650.391,c),
(864.046,650.391,o),
(857.454,650.098,o),
(857.097,649.739,c)
);
},
{
attr = {
fillColor = (0,255);
};
closed = 1;
nodes = (
(595.47,640.647,o),
(596.488,638.248,o),
(598.142,630.127,c),
(598.788,626.953,l),
(583.085,626.953,l),
(574.449,626.953,o),
(567.383,627.337,o),
(567.383,627.807,c),
(567.383,629.846,o),
(570.442,637.063,o),
(572.316,639.446,c),
(575.753,643.815,o),
(579.171,645.494,o),
(584.642,645.501,c),
(588.65,645.507,o),
(590.311,644.988,o),
(592.68,642.995,c)
);
},
{
attr = {
fillColor = (0,255);
};
closed = 1;
nodes = (
(717.513,451.681,o),
(705.583,445.49,o),
(697.659,435.764,c),
(689.077,425.228,o),
(685.539,414.988,o),
(685.559,400.738,c),
(685.578,385.906,o),
(689.848,374.732,o),
(699.11,365.267,c),
(709.255,354.898,o),
(721.524,350.478,o),
(740.153,350.478,c),
(753,350.478,o),
(762.424,352.233,o),
(772.402,356.487,c),
(778.809,359.218,l),
(779.297,373.654,l),
(779.785,388.091,l),
(784.424,389.529,l),
(787.761,390.564,o),
(789.062,391.474,o),
(789.062,392.769,c),
(789.062,394.472,o),
(787.908,394.555,o),
(767.835,394.307,c),
(749.124,394.074,o),
(746.571,393.854,o),
(746.302,392.452,c),
(746.079,391.294,o),
(747.007,390.671,o),
(749.707,390.165,c),
(751.748,389.782,o),
(754.846,388.873,o),
(756.592,388.144,c),
(759.766,386.818,l),
(759.766,374.049,l),
(759.766,361.279,l),
(757.08,360.229,l),
(755.603,359.652,o),
(750.759,358.941,o),
(746.316,358.65,c),
(722.332,357.078,o),
(707.436,371.813,o),
(706.271,398.263,c),
(705.52,415.346,o),
(708.821,426.054,o),
(717.901,435.989,c),
(725.032,443.791,o),
(731.164,446.494,o),
(741.997,446.611,c),
(749.496,446.692,o),
(751.294,446.363,o),
(756.06,444.031,c),
(762.595,440.834,o),
(765.825,436.863,o),
(770.02,426.875,c),
(772.433,421.128,o),
(773.638,419.36,o),
(775.315,419.112,c),
(777.487,418.791,l),
(777.171,433.438,l),
(776.997,441.494,o),
(776.59,448.349,o),
(776.266,448.672,c),
(775.941,448.995,o),
(771.505,450.317,o),
(766.406,451.61,c),
(755.745,454.314,o),
(741.398,455.361,o),
(732.91,454.053,c)
);
},
{
attr = {
fillColor = (0,255);
};
closed = 1;
nodes = (
(242.972,450.807,o),
(239.746,450.403,o),
(239.746,449.327,c),
(239.746,448.526,o),
(241.627,447.492,o),
(244.33,446.806,c),
(252.539,444.722,o),
(251.953,448.186,o),
(251.953,401.736,c),
(251.953,361.751,o),
(251.888,360.286,o),
(250.014,358.412,c),
(248.947,357.346,o),
(246.311,356.19,o),
(244.154,355.846,c),
(241.198,355.373,o),
(240.234,354.77,o),
(240.234,353.391,c),
(240.234,351.653,o),
(241.43,351.563,o),
(264.404,351.579,c),
(297.2,351.603,o),
(304.587,353.262,o),
(313.124,362.523,c),
(318.656,368.525,o),
(320.633,374.205,o),
(320.152,382.719,c),
(319.832,388.385,o),
(319.259,390.287,o),
(316.827,393.757,c),
(313.426,398.61,o),
(304.924,404.078,o),
(299.403,404.962,c),
(295.584,405.573,l),
(301.168,408.234,l),
(311.436,413.13,o),
(315.371,418.926,o),
(315.408,429.215,c),
(315.435,436.425,o),
(313.354,440.71,o),
(307.719,445.043,c),
(299.758,451.166,o),
(288.307,452.53,o),
(255.371,451.277,c)
);
},
{
attr = {
fillColor = (0,255);
};
closed = 1;
nodes = (
(88.259,448.579,o),
(90.129,447.523,o),
(92.963,446.805,c),
(101.175,444.723,o),
(100.586,448.23,o),
(100.586,401.367,c),
(100.586,354.504,o),
(101.175,358.012,o),
(92.963,355.93,c),
(90.129,355.211,o),
(88.259,354.155,o),
(88.063,353.165,c),
(87.778,351.718,o),
(89.879,351.562,o),
(109.792,351.562,c),
(130.742,351.562,o),
(131.836,351.654,o),
(131.836,353.404,c),
(131.836,354.844,o),
(130.858,355.394,o),
(127.371,355.917,c),
(124.915,356.285,o),
(122.05,357.442,o),
(121.004,358.488,c),
(119.159,360.333,o),
(119.121,361.632,o),
(119.712,401.631,c),
(120.299,441.359,o),
(120.394,442.934,o),
(122.289,444.587,c),
(123.372,445.531,o),
(125.963,446.576,o),
(128.047,446.909,c),
(130.883,447.363,o),
(131.836,447.975,o),
(131.836,449.344,c),
(131.836,451.076,o),
(130.684,451.172,o),
(109.792,451.172,c),
(89.879,451.172,o),
(87.778,451.017,o),
(88.063,449.569,c)
);
},
{
attr = {
fillColor = (0,255);
};
closed = 1;
nodes = (
(842.773,448.922,o),
(844.201,447.657,o),
(845.947,446.911,c),
(850.769,444.849,o),
(853.298,441.562,o),
(865.96,420.898,c),
(884.819,390.123,o),
(882.814,395.249,o),
(882.799,377.844,c),
(882.792,369.565,o),
(882.535,361.857,o),
(882.228,360.715,c),
(881.587,358.327,o),
(878.561,356.726,o),
(873.015,355.839,c),
(870.242,355.395,o),
(869.141,354.741,o),
(869.141,353.54,c),
(869.141,352,o),
(870.963,351.868,o),
(891.357,351.956,c),
(909.597,352.034,o),
(913.574,352.293,o),
(913.574,353.404,c),
(913.574,354.223,o),
(911.507,355.287,o),
(908.344,356.097,c),
(905.467,356.833,o),
(902.72,357.678,o),
(902.24,357.975,c),
(901.76,358.271,o),
(901.382,366.947,o),
(901.4,377.255,c),
(901.434,395.996,l),
(915.805,419.922,l),
(929.534,442.779,o),
(930.383,443.95,o),
(934.814,446.148,c),
(937.365,447.414,o),
(939.453,449.062,o),
(939.453,449.811,c),
(939.453,450.927,o),
(936.103,451.172,o),
(920.827,451.172,c),
(903.778,451.172,o),
(902.228,451.03,o),
(902.522,449.502,c),
(902.711,448.52,o),
(904.141,447.566,o),
(905.987,447.188,c),
(909.599,446.45,o),
(914.062,443.771,o),
(914.062,442.343,c),
(914.062,441.087,o),
(905.857,424.818,o),
(899.614,413.696,c),
(894.75,405.029,l),
(887.675,417.114,l),
(883.783,423.761,o),
(879.12,431.674,o),
(877.312,434.698,c),
(872.317,443.051,o),
(872.974,444.834,o),
(882.08,447.652,c),
(883.02,447.943,o),
(883.789,448.853,o),
(883.789,449.677,c),
(883.789,450.972,o),
(881.046,451.172,o),
(863.281,451.172,c),
(845.785,451.172,o),
(842.773,450.959,o),
(842.773,449.72,c)
);
},
{
attr = {
fillColor = (0,255);
};
closed = 1;
nodes = (
(294.486,439.09,o),
(297.858,433.022,o),
(297.836,425.586,c),
(297.802,414.846,o),
(291.231,409.047,o),
(277.588,407.718,c),
(270.508,407.028,l),
(270.508,425.962,l),
(270.508,444.896,l),
(278.154,444.238,l),
(282.359,443.877,o),
(287.085,442.917,o),
(288.654,442.105,c)
);
},
{
attr = {
fillColor = (0,255);
};
closed = 1;
nodes = (
(602,423.984,o),
(598.868,422.476,o),
(598.176,421.901,c),
(597.278,421.156,o),
(596.112,421.184,o),
(594.113,421.998,c),
(589.74,423.777,o),
(575.405,423.484,o),
(570.854,421.522,c),
(564.824,418.924,o),
(560.762,415.346,o),
(557.647,409.893,c),
(552.295,400.521,o),
(552.757,391.235,o),
(559.039,381.899,c),
(562.377,376.939,l),
(559.753,375.574,l),
(550.119,370.562,o),
(549.168,358.069,o),
(558.096,353.812,c),
(561.416,352.229,l),
(557.225,349.57,l),
(552.082,346.309,o),
(549.267,342.488,o),
(547.706,336.651,c),
(545.43,328.142,o),
(549.717,320.325,o),
(558.815,316.395,c),
(565.24,313.62,o),
(579.301,312.647,o),
(587.036,314.441,c),
(609.202,319.584,o),
(623.008,337.384,o),
(616.296,352.164,c),
(614.246,356.677,o),
(609.602,360.586,o),
(604.492,362.098,c),
(602.612,362.653,o),
(593.849,363.345,o),
(585.018,363.633,c),
(571.261,364.081,o),
(568.604,364.423,o),
(566.463,366.02,c),
(563.312,368.369,o),
(563.033,370.035,o),
(565.332,372.768,c),
(566.907,374.641,o),
(567.591,374.804,o),
(570.435,373.988,c),
(572.24,373.471,o),
(577.36,373.047,o),
(581.813,373.047,c),
(591.05,373.047,o),
(596.742,375.268,o),
(602.239,381.017,c),
(610.557,389.713,o),
(611.835,405.512,o),
(604.847,413.233,c),
(603.416,414.814,o),
(603.659,414.883,o),
(608.79,414.353,c),
(614.258,413.789,l),
(614.258,420.762,l),
(614.258,428.873,o),
(614.178,428.913,o),
(605.137,425.254,c)
);
},
{
attr = {
fillColor = (0,255);
};
closed = 1;
nodes = (
(426.717,420.145,o),
(416.961,413.304,o),
(417.007,411.294,c),
(417.071,408.519,o),
(418.807,408.366,o),
(424.357,410.647,c),
(431.036,413.394,o),
(437.297,413.737,o),
(441.79,411.605,c),
(446.618,409.314,o),
(448.333,405.461,o),
(448.732,396,c),
(449.081,387.758,l),
(445.488,387.2,l),
(435.814,385.699,o),
(430.227,384.525,o),
(426.477,383.204,c),
(413.591,378.667,o),
(408.166,368.444,o),
(412.997,357.807,c),
(417.626,347.612,o),
(432.842,347,o),
(446.965,356.436,c),
(450.083,358.519,l),
(451.62,355.546,l),
(453.8,351.332,o),
(458.228,349.274,o),
(463.436,350.055,c),
(471.196,351.219,o),
(478.407,358.314,o),
(471.133,357.628,c),
(469.063,357.434,o),
(467.562,357.992,o),
(466.25,359.445,c),
(464.485,361.4,o),
(464.355,363.16,o),
(464.355,385.118,c),
(464.355,407.558,o),
(464.252,408.885,o),
(462.201,412.719,c),
(456.693,423.015,o),
(445.978,426.252,o),
(432.034,421.831,c)
);
},
{
attr = {
fillColor = (0,255);
};
closed = 1;
nodes = (
(596.271,405.331,o),
(596.525,389.344,o),
(589.827,382.645,c),
(587.582,380.4,o),
(586.208,379.883,o),
(582.497,379.883,c),
(578.629,379.883,o),
(577.435,380.378,o),
(574.697,383.115,c),
(564.622,393.19,o),
(569.965,415.995,o),
(582.404,416.011,c),
(585.459,416.015,o),
(586.808,415.366,o),
(589.35,412.671,c)
);
},
{
attr = {
fillColor = (0,255);
};
closed = 1;
nodes = (
(297.694,395.586,o),
(300.781,390.468,o),
(300.781,380.371,c),
(300.781,366.61,o),
(294.076,360.265,o),
(277.996,358.808,c),
(270.508,358.129,l),
(270.508,379.888,l),
(270.508,401.646,l),
(278.094,401.126,l),
(282.266,400.841,o),
(287.423,399.878,o),
(289.555,398.987,c)
);
},
{
attr = {
fillColor = (0,255);
};
closed = 1;
nodes = (
(449.346,363.491,l),
(444.644,361.677,l),
(442.058,360.68,o),
(437.787,359.896,o),
(435.154,359.937,c),
(431.202,360,o),
(429.967,360.478,o),
(428.074,362.678,c),
(425.092,366.145,o),
(425.156,370.201,o),
(428.252,373.88,c),
(431.066,377.225,o),
(439.531,380.437,o),
(446.346,380.746,c),
(448.83,380.858,o),
(448.846,380.809,o),
(449.095,372.175,c)
);
},
{
attr = {
fillColor = (0,255);
};
closed = 1;
nodes = (
(602.268,347.998,o),
(604.492,343.957,o),
(604.492,339.712,c),
(604.492,335.376,o),
(601.197,328.944,o),
(597.623,326.302,c),
(587.444,318.776,o),
(570.271,319.87,o),
(564.022,328.44,c),
(561.026,332.549,o),
(561.167,343.054,o),
(564.275,347.412,c),
(566.539,350.586,l),
(581.563,350.586,l),
(591.132,350.586,o),
(597.518,350.162,o),
(599.148,349.419,c)
);
},
{
attr = {
fillColor = (0,255);
};
closed = 1;
nodes = (
(242.913,221.667,o),
(241.108,221.469,o),
(241.389,220.012,c),
(241.586,218.991,o),
(243.434,217.947,o),
(246.371,217.197,c),
(254.491,215.126,o),
(253.906,218.682,o),
(253.906,171.419,c),
(253.906,123.948,o),
(254.438,127.21,o),
(246.338,125.053,c),
(243.853,124.392,o),
(242.188,123.376,o),
(242.188,122.521,c),
(242.188,121.311,o),
(245.598,121.094,o),
(264.648,121.094,c),
(283.699,121.094,o),
(287.109,121.311,o),
(287.109,122.521,c),
(287.109,123.381,o),
(285.459,124.374,o),
(282.959,125.021,c),
(275.825,126.863,o),
(274.936,127.165,o),
(273.682,128.169,c),
(272.738,128.924,o),
(272.461,139.007,o),
(272.461,172.596,c),
(272.461,216.045,l),
(278.076,215.375,l),
(292.103,213.701,o),
(298.857,206.083,o),
(298.807,191.993,c),
(298.769,181.454,o),
(294.793,175.825,o),
(285.156,172.666,c),
(279.505,170.812,o),
(278.819,168.33,o),
(283.705,167.413,c),
(293.322,165.609,o),
(306.969,171.176,o),
(312.242,179.054,c),
(316.35,185.188,o),
(317.713,190.476,o),
(317.119,197.959,c),
(316.493,205.836,o),
(312.934,212.037,o),
(306.799,215.936,c),
(297.956,221.555,o),
(290.465,222.496,o),
(258.966,221.947,c)
);
},
{
attr = {
fillColor = (0,255);
};
closed = 1;
nodes = (
(571.363,214.414,o),
(572.727,207.963,o),
(578.775,205.436,c),
(587.307,201.871,o),
(594.695,210.312,o),
(590.368,218.68,c),
(588.697,221.912,o),
(587.137,222.656,o),
(582.038,222.656,c),
(579.062,222.656,o),
(577.783,222.044,o),
(575.77,219.651,c)
);
},
{
attr = {
fillColor = (0,255);
};
closed = 1;
nodes = (
(57.617,218.5,o),
(58.858,217.807,o),
(62.988,216.882,c),
(72.23,214.813,o),
(71.68,217.753,o),
(70.874,174.834,c),
(70.486,154.139,o),
(69.809,135.273,o),
(69.368,132.909,c),
(68.524,128.381,o),
(67.277,127.186,o),
(61.531,125.4,c),
(59.646,124.815,o),
(57.964,123.607,o),
(57.79,122.715,c),
(57.504,121.246,o),
(59.373,121.094,o),
(77.637,121.094,c),
(96.263,121.094,o),
(97.774,121.223,o),
(97.473,122.792,c),
(97.293,123.726,o),
(96.271,124.624,o),
(95.204,124.788,c),
(90.979,125.438,o),
(85.096,128.113,o),
(84.431,129.687,c),
(83.457,131.991,o),
(82.187,163.475,o),
(82.102,187.436,c),
(82.031,207.391,l),
(89.496,196.713,l),
(93.602,190.84,o),
(107.335,171.434,o),
(120.014,153.587,c),
(143.066,121.139,l),
(148.682,121.116,l),
(154.297,121.094,l),
(154.405,127.686,l),
(154.465,131.311,o),
(154.795,151.944,o),
(155.138,173.536,c),
(155.616,203.658,o),
(156.056,213.091,o),
(157.024,214.063,c),
(157.719,214.762,o),
(160.355,216.029,o),
(162.884,216.881,c),
(165.547,217.777,o),
(167.613,219.113,o),
(167.796,220.055,c),
(168.082,221.525,o),
(166.302,221.68,o),
(148.997,221.68,c),
(130.827,221.68,o),
(129.883,221.588,o),
(129.883,219.813,c),
(129.883,218.391,o),
(130.828,217.785,o),
(133.846,217.275,c),
(136.025,216.907,o),
(138.892,215.66,o),
(140.216,214.504,c),
(142.37,212.623,o),
(142.717,211.274,o),
(143.518,201.66,c),
(144.466,190.269,o),
(145.87,148.438,o),
(145.304,148.438,c),
(145.12,148.438,o),
(133.335,164.9,o),
(119.115,185.021,c),
(93.262,221.605,l),
(75.439,221.643,l),
(58.769,221.678,o),
(57.617,221.563,o),
(57.617,219.882,c)
);
},
{
attr = {
fillColor = (0,255);
};
closed = 1;
nodes = (
(682.617,218.603,o),
(683.969,217.522,o),
(686.972,216.376,c),
(692.346,214.323,o),
(692.049,214.924,o),
(708.041,173.828,c),
(714.625,156.909,o),
(722.035,138.013,o),
(724.508,131.836,c),
(729.004,120.605,l),
(735.059,120.316,l),
(740.896,120.037,o),
(741.167,120.13,o),
(742.604,122.907,c),
(743.423,124.492,o),
(751.832,145.276,o),
(761.291,169.096,c),
(770.75,192.914,o),
(779.164,213.155,o),
(779.988,214.074,c),
(780.812,214.994,o),
(782.971,216.237,o),
(784.786,216.836,c),
(787.013,217.57,o),
(788.086,218.535,o),
(788.086,219.803,c),
(788.086,221.591,o),
(787.178,221.68,o),
(768.972,221.68,c),
(751.773,221.68,o),
(749.889,221.519,o),
(750.173,220.077,c),
(750.35,219.176,o),
(752.198,217.968,o),
(754.395,217.317,c),
(761.424,215.236,o),
(762.695,214.153,o),
(762.695,210.241,c),
(762.695,208.284,o),
(761.138,201.694,o),
(759.234,195.597,c),
(755.584,183.902,o),
(740.491,140.556,o),
(739.845,139.91,c),
(738.811,138.876,o),
(713.867,207.502,o),
(713.867,211.38,c),
(713.867,214.141,o),
(716.587,216.256,o),
(721.436,217.267,c),
(723.685,217.736,o),
(724.609,218.475,o),
(724.609,219.804,c),
(724.609,221.596,o),
(723.669,221.68,o),
(703.613,221.68,c),
(683.778,221.68,o),
(682.617,221.579,o),
(682.617,219.859,c)
);
},
{
attr = {
fillColor = (0,255);
};
closed = 1;
nodes = (
(883.216,210.482,o),
(876.178,192.115,o),
(869.242,173.671,c),
(851.72,127.073,o),
(852.197,128.061,o),
(845.967,125.457,c),
(844.211,124.724,o),
(842.773,123.441,o),
(842.773,122.608,c),
(842.773,121.299,o),
(845.026,121.094,o),
(859.375,121.094,c),
(873.386,121.094,o),
(875.977,121.319,o),
(875.977,122.54,c),
(875.977,123.335,o),
(874.769,124.276,o),
(873.291,124.63,c),
(871.813,124.984,o),
(869.368,125.898,o),
(867.855,126.66,c),
(865.447,127.874,o),
(865.183,128.435,o),
(865.727,131.162,c),
(866.479,134.927,o),
(868.734,142.223,o),
(871.297,149.17,c),
(873.187,154.297,l),
(889.767,154.297,l),
(906.346,154.297,l),
(908.139,150.292,l),
(911.578,142.608,o),
(915.378,130.221,o),
(914.775,128.652,c),
(914.442,127.782,o),
(911.948,126.282,o),
(909.233,125.318,c),
(906.519,124.354,o),
(904.297,123.009,o),
(904.297,122.329,c),
(904.297,121.373,o),
(908.823,121.094,o),
(924.316,121.094,c),
(941.508,121.094,o),
(944.336,121.302,o),
(944.336,122.566,c),
(944.336,123.38,o),
(942.538,124.759,o),
(940.322,125.646,c),
(935.017,127.769,o),
(937.082,123.029,o),
(905.901,204.59,c),
(899.555,221.191,l),
(893.734,221.479,l),
(887.914,221.768,l),
(884.883,214.486,l)
);
},
{
attr = {
fillColor = (0,255);
};
closed = 1;
nodes = (
(904.169,162.598,l),
(890.426,162.326,l),
(882.867,162.177,o),
(876.524,162.213,o),
(876.33,162.407,c),
(876.136,162.602,o),
(878.942,171.59,o),
(882.568,182.382,c),
(886.193,193.174,o),
(889.436,201.706,o),
(889.772,201.344,c),
(890.108,200.98,o),
(893.485,192.114,o),
(897.276,181.641,c)
);
},
{
attr = {
fillColor = (0,255);
};
closed = 1;
nodes = (
(426.412,191.148,o),
(420.094,187.591,o),
(416.615,184.537,c),
(401.093,170.908,o),
(400.221,142.986,o),
(414.867,128.6,c),
(422.033,121.562,o),
(427.27,119.621,o),
(438.965,119.67,c),
(450.832,119.721,o),
(455.855,121.738,o),
(463.521,129.535,c),
(482.532,148.866,o),
(477.723,182.667,o),
(454.739,191.267,c),
(448.947,193.434,o),
(435.979,194.069,o),
(430.664,192.446,c)
);
},
{
attr = {
fillColor = (0,255);
};
closed = 1;
nodes = (
(567.817,185.48,o),
(565.43,184.411,o),
(565.43,183.101,c),
(565.43,182.381,o),
(566.915,181.302,o),
(568.73,180.703,c),
(575.316,178.529,o),
(575.259,178.802,o),
(574.968,151.401,c),
(574.707,126.726,l),
(570.457,125.13,l),
(568.119,124.253,o),
(566.142,123.096,o),
(566.063,122.559,c),
(565.972,121.946,o),
(572.563,121.482,o),
(583.74,121.315,c),
(598.86,121.09,o),
(601.562,121.267,o),
(601.562,122.479,c),
(601.562,123.351,o),
(599.75,124.422,o),
(596.924,125.22,c),
(592.285,126.529,l),
(592.028,159.456,l),
(591.771,192.383,l),
(589.587,192.311,l),
(588.386,192.271,o),
(584.326,191.176,o),
(580.566,189.879,c)
);
},
{
attr = {
fillColor = (0,255);
};
closed = 1;
nodes = (
(460.266,177.152,o),
(463.579,145.344,o),
(451.363,132.481,c),
(445.409,126.211,o),
(439.416,125.361,o),
(432.425,129.795,c),
(428.903,132.028,o),
(427.241,134.063,o),
(424.665,139.296,c),
(421.52,145.686,o),
(421.387,146.41,o),
(421.389,157.206,c),
(421.392,168.923,o),
(422.178,171.949,o),
(427.066,179.052,c),
(431.31,185.216,o),
(439.07,187.211,o),
(446.006,183.919,c)
);
}
);
width = 1000;
}
);
unicode = 72;
},
{
glyphname = I;
lastChange = "2023-01-30 16:49:38 +0000";
layers = (
{
layerId = m01;
shapes = (
{
attr = {
fillColor = (0,255);
};
closed = 1;
nodes = (
(4,640,o),
(17,634,o),
(37,627,c),
(90,614,o),
(90,634,o),
(90,324,c),
(90,20,o),
(90,40,o),
(37,27,c),
(17,20,o),
(4,13,o),
(4,7,c),
(4,0,o),
(17,0,o),
(149,0,c),
(288,0,o),
(294,0,o),
(294,7,c),
(294,20,o),
(288,20,o),
(261,27,c),
(248,27,o),
(228,33,o),
(222,40,c),
(209,53,o),
(209,66,o),
(215,330,c),
(215,588,o),
(215,601,o),
(228,614,c),
(235,621,o),
(255,627,o),
(268,627,c),
(288,627,o),
(294,634,o),
(294,640,c),
(294,654,o),
(288,654,o),
(149,654,c),
(17,654,o),
(4,654,o),
(4,647,c)
);
}
);
width = 303;
}
);
unicode = 73;
},
{
glyphname = N;
lastChange = "2023-01-30 16:49:38 +0000";
layers = (
{
layerId = m01;
shapes = (
{
attr = {
fillColor = (0,255);
};
closed = 1;
nodes = (
(7,646,o),
(14,640,o),
(40,633,c),
(99,620,o),
(99,640,o),
(93,356,c),
(86,217,o),
(86,92,o),
(80,79,c),
(80,46,o),
(66,39,o),
(33,26,c),
(20,26,o),
(7,19,o),
(7,13,c),
(7,0,o),
(14,0,o),
(139,0,c),
(258,0,o),
(271,0,o),
(264,13,c),
(264,19,o),
(258,26,o),
(251,26,c),
(225,26,o),
(185,46,o),
(179,59,c),
(172,72,o),
(165,277,o),
(165,435,c),
(165,567,l),
(212,501,l),
(245,462,o),
(330,330,o),
(416,217,c),
(568,0,l),
(608,0,l),
(641,0,l),
(641,46,l),
(641,66,o),
(647,204,o),
(647,349,c),
(654,547,o),
(654,607,o),
(660,613,c),
(667,620,o),
(680,627,o),
(700,633,c),
(720,640,o),
(733,646,o),
(733,653,c),
(733,666,o),
(720,666,o),
(608,666,c),
(489,666,o),
(482,666,o),
(482,653,c),
(482,640,o),
(489,640,o),
(509,633,c),
(522,633,o),
(542,627,o),
(548,620,c),
(561,607,o),
(568,594,o),
(575,534,c),
(575,455,o),
(588,178,o),
(581,178,c),
(581,178,o),
(502,290,o),
(410,422,c),
(238,666,l),
(119,666,l),
(14,666,o),
(7,666,o),
(7,653,c)
);
}
);
width = 732;
}
);
unicode = 78;
},
{
glyphname = O;
lastChange = "2023-01-30 16:49:38 +0000";
layers = (
{
layerId = m01;
shapes = (
{
attr = {
fillColor = (0,255);
};
closed = 1;
nodes = (
(148,626,o),
(49,508,o),
(36,362,c),
(22,270,o),
(42,191,o),
(88,118,c),
(121,79,o),
(148,52,o),
(201,26,c),
(300,-20,o),
(445,-20,o),
(537,39,c),
(636,98,o),
(696,211,o),
(696,329,c),
(696,402,o),
(689,442,o),
(656,501,c),
(603,613,o),
(498,666,o),
(366,666,c),
(339,666,o),
(300,659,o),
(280,659,c)
);
},
{
attr = {
fillColor = (0,255);
};
closed = 1;
nodes = (
(537,541,o),
(590,376,o),
(557,230,c),
(524,112,o),
(458,46,o),
(372,46,c),
(280,46,o),
(214,98,o),
(181,197,c),
(161,250,o),
(161,382,o),
(174,435,c),
(207,534,o),
(253,587,o),
(326,607,c),
(352,613,o),
(412,607,o),
(438,593,c)
);
}
);
width = 728;
}
);
unicode = 79;
},
{
glyphname = P;
lastChange = "2023-01-30 16:49:38 +0000";
layers = (
{
layerId = m01;
shapes = (
{
attr = {
fillColor = (0,255);
};
closed = 1;
nodes = (
(17,666,o),
(4,660,o),
(4,653,c),
(10,646,o),
(17,640,o),
(37,633,c),
(90,620,o),
(90,646,o),
(90,330,c),
(90,19,o),
(90,39,o),
(37,26,c),
(24,19,o),
(10,13,o),
(10,13,c),
(10,0,o),
(37,0,o),
(162,0,c),
(288,0,o),
(307,0,o),
(307,13,c),
(307,13,o),
(294,19,o),
(281,26,c),
(235,39,o),
(228,39,o),
(222,46,c),
(215,52,o),
(208,118,o),
(208,343,c),
(208,627,l),
(248,620,l),
(340,613,o),
(387,561,o),
(387,468,c),
(387,396,o),
(360,363,o),
(294,343,c),
(261,330,o),
(255,310,o),
(288,303,c),
(347,297,o),
(439,330,o),
(472,382,c),
(499,422,o),
(512,455,o),
(505,508,c),
(499,561,o),
(479,600,o),
(439,627,c),
(380,666,o),
(327,666,o),
(123,666,c)
);
}
);
width = 526;
}
);
unicode = 80;
},
{
glyphname = S;
lastChange = "2023-01-30 16:49:38 +0000";
layers = (
{
layerId = m01;
shapes = (
{
attr = {
fillColor = (0,255);
};
closed = 1;
nodes = (
(128,653,o),
(82,607,o),
(56,548,c),
(42,501,o),
(36,468,o),
(49,429,c),
(69,363,o),
(108,330,o),
(214,297,c),
(300,270,o),
(339,244,o),
(353,198,c),
(386,86,o),
(280,-7,o),
(174,46,c),
(135,66,o),
(115,99,o),
(89,152,c),
(82,178,o),
(69,191,o),
(62,191,c),
(56,191,o),
(49,185,o),
(49,119,c),
(49,72,o),
(49,33,o),
(49,26,c),
(62,-7,o),
(234,-33,o),
(313,-7,c),
(392,26,o),
(445,99,o),
(452,191,c),
(458,237,o),
(452,244,o),
(432,284,c),
(405,336,o),
(372,363,o),
(280,389,c),
(188,416,o),
(168,429,o),
(148,468,c),
(108,561,o),
(194,647,o),
(287,614,c),
(313,600,o),
(346,561,o),
(372,508,c),
(392,468,o),
(399,455,o),
(412,455,c),
(419,455,o),
(425,462,o),
(425,548,c),
(425,633,o),
(425,640,o),
(405,647,c),
(386,660,o),
(300,673,o),
(260,673,c),
(247,673,o),
(221,673,o),
(201,666,c)
);
}
);
width = 490;
}
);
unicode = 83;
},
{
glyphname = V;
lastChange = "2023-01-30 16:49:38 +0000";
layers = (
{
layerId = m01;
shapes = (
{
attr = {
fillColor = (0,255);
};
closed = 1;
nodes = (
(-1,646,o),
(6,640,o),
(25,627,c),
(58,613,o),
(58,620,o),
(164,349,c),
(210,237,o),
(256,112,o),
(276,72,c),
(303,0,l),
(342,-7,l),
(382,-7,o),
(382,-7,o),
(395,13,c),
(395,19,o),
(454,158,o),
(514,316,c),
(580,475,o),
(633,607,o),
(639,613,c),
(646,620,o),
(659,627,o),
(672,633,c),
(685,640,o),
(692,646,o),
(692,653,c),
(692,666,o),
(685,666,o),
(567,666,c),
(454,666,o),
(441,666,o),
(441,653,c),
(441,646,o),
(454,640,o),
(468,633,c),
(514,620,o),
(527,613,o),
(527,587,c),
(527,574,o),
(514,534,o),
(501,495,c),
(481,415,o),
(375,132,o),
(375,125,c),
(369,118,o),
(204,574,o),
(204,594,c),
(204,613,o),
(223,627,o),
(250,633,c),
(270,640,o),
(276,640,o),
(276,653,c),
(276,666,o),
(270,666,o),
(138,666,c),
(6,666,o),
(-1,666,o),
(-1,653,c)
);
}
);
width = 691;
}
);
unicode = 86;
},
{
glyphname = Y;
lastChange = "2023-01-30 16:49:38 +0000";
layers = (
{
layerId = m01;
shapes = (
{
attr = {
fillColor = (0,255);
};
closed = 1;
nodes = (
(-2,640,o),
(5,634,o),
(18,627,c),
(51,614,o),
(64,594,o),
(150,456,c),
(275,251,o),
(262,284,o),
(262,172,c),
(262,119,o),
(262,66,o),
(255,60,c),
(255,40,o),
(236,33,o),
(196,27,c),
(176,20,o),
(170,20,o),
(170,13,c),
(170,0,o),
(183,0,o),
(315,0,c),
(440,0,o),
(467,0,o),
(467,7,c),
(467,13,o),
(453,20,o),
(427,27,c),
(407,33,o),
(394,40,o),
(387,40,c),
(387,40,o),
(381,99,o),
(381,165,c),
(381,291,l),
(480,449,l),
(572,601,o),
(572,607,o),
(605,621,c),
(618,627,o),
(632,640,o),
(632,647,c),
(632,654,o),
(612,654,o),
(513,654,c),
(401,654,o),
(387,654,o),
(394,647,c),
(394,640,o),
(401,634,o),
(414,627,c),
(440,621,o),
(467,607,o),
(467,594,c),
(467,588,o),
(414,482,o),
(374,409,c),
(341,350,l),
(295,429,l),
(269,475,o),
(236,528,o),
(222,548,c),
(189,601,o),
(196,614,o),
(255,634,c),
(262,634,o),
(269,640,o),
(269,647,c),
(269,654,o),
(249,654,o),
(130,654,c),
(18,654,o),
(-2,654,o),
(-2,647,c)
);
}
);
width = 630;
}
);
unicode = 89;
},
{
glyphname = a;
lastChange = "2023-01-30 16:49:38 +0000";
layers = (
{
layerId = m01;
shapes = (
{
attr = {
fillColor = (0,255);
};
closed = 1;
nodes = (
(128,449,o),
(62,403,o),
(62,390,c),
(62,376,o),
(76,370,o),
(109,390,c),
(155,403,o),
(194,409,o),
(227,396,c),
(260,376,o),
(267,350,o),
(274,291,c),
(274,238,l),
(247,231,l),
(188,225,o),
(148,218,o),
(122,205,c),
(43,178,o),
(3,106,o),
(36,40,c),
(69,-26,o),
(168,-33,o),
(260,27,c),
(280,46,l),
(293,27,l),
(307,-6,o),
(333,-20,o),
(366,-13,c),
(419,-6,o),
(465,40,o),
(419,40,c),
(406,33,o),
(399,40,o),
(386,46,c),
(373,60,o),
(373,73,o),
(373,218,c),
(373,370,o),
(373,376,o),
(359,403,c),
(326,469,o),
(254,489,o),
(161,462,c)
);
},
{
attr = {
fillColor = (0,255);
};
closed = 1;
nodes = (
(274,73,l),
(247,66,l),
(227,60,o),
(201,53,o),
(181,53,c),
(155,53,o),
(148,53,o),
(135,73,c),
(115,93,o),
(115,119,o),
(135,145,c),
(155,165,o),
(214,185,o),
(254,192,c),
(274,192,o),
(274,192,o),
(274,132,c)
);
}
);
width = 454;
}
);
unicode = 97;
},
{
glyphname = b;
lastChange = "2023-01-30 16:49:38 +0000";
layers = (
{
layerId = m01;
shapes = (
{
attr = {
fillColor = (0,255);
};
closed = 1;
nodes = (
(34,706,o),
(21,699,o),
(21,692,c),
(21,686,o),
(28,679,o),
(34,679,c),
(41,679,o),
(54,673,o),
(61,666,c),
(80,653,l),
(80,343,l),
(80,26,l),
(120,13,l),
(146,6,o),
(193,-1,o),
(232,-1,c),
(285,-7,o),
(305,-1,o),
(344,6,c),
(457,46,o),
(523,151,o),
(516,263,c),
(509,362,o),
(443,442,o),
(358,448,c),
(318,455,o),
(259,442,o),
(219,415,c),
(206,402,o),
(193,395,o),
(193,395,c),
(193,395,o),
(193,475,o),
(193,574,c),
(193,686,o),
(186,752,o),
(186,752,c),
(179,758,o),
(146,745,o),
(100,732,c)
);
},
{
attr = {
fillColor = (0,255);
};
closed = 1;
nodes = (
(430,310,o),
(430,125,o),
(351,65,c),
(311,46,o),
(259,39,o),
(219,59,c),
(186,72,l),
(193,211,l),
(193,356,l),
(212,362,l),
(252,376,o),
(318,369,o),
(344,356,c)
);
}
);
width = 536;
}
);
unicode = 98;
},
{
glyphname = e;
lastChange = "2023-01-30 16:49:38 +0000";
layers = (
{
layerId = m01;
shapes = (
{
attr = {
fillColor = (0,255);
};
closed = 1;
nodes = (
(116,429,o),
(57,356,o),
(43,251,c),
(24,145,o),
(70,53,o),
(156,6,c),
(182,-7,o),
(195,-7,o),
(248,-7,c),
(301,-7,o),
(314,-7,o),
(340,6,c),
(373,20,o),
(406,46,o),
(406,59,c),
(406,79,o),
(393,79,o),
(367,72,c),
(327,59,o),
(274,53,o),
(241,66,c),
(189,86,o),
(149,138,o),
(142,204,c),
(136,244,l),
(294,244,l),
(459,244,l),
(453,284,l),
(446,350,o),
(406,416,o),
(347,442,c),
(307,462,o),
(248,468,o),
(208,455,c)
);
},
{
attr = {
fillColor = (0,255);
};
closed = 1;
nodes = (
(327,383,o),
(334,363,o),
(347,310,c),
(354,290,l),
(248,290,l),
(189,290,o),
(142,290,o),
(142,297,c),
(142,310,o),
(162,356,o),
(175,369,c),
(202,402,o),
(222,409,o),
(261,416,c),
(288,416,o),
(294,409,o),
(314,396,c)
);
}
);
width = 483;
}
);
unicode = 101;
},
{
glyphname = g;
lastChange = "2023-01-30 16:49:38 +0000";
layers = (
{
layerId = m01;
shapes = (
{
attr = {
fillColor = (0,255);
};
closed = 1;
nodes = (
(388,475,o),
(369,462,o),
(362,462,c),
(355,456,o),
(349,456,o),
(336,462,c),
(309,475,o),
(210,469,o),
(184,462,c),
(144,442,o),
(118,416,o),
(98,383,c),
(58,324,o),
(65,258,o),
(105,198,c),
(124,165,l),
(111,159,l),
(45,126,o),
(39,40,o),
(98,13,c),
(118,0,l),
(91,-13,l),
(58,-39,o),
(39,-66,o),
(32,-99,c),
(12,-158,o),
(45,-211,o),
(105,-237,c),
(144,-251,o),
(237,-257,o),
(289,-251,c),
(435,-211,o),
(527,-99,o),
(481,0,c),
(468,33,o),
(441,60,o),
(402,66,c),
(395,73,o),
(336,73,o),
(276,79,c),
(184,79,o),
(171,79,o),
(151,93,c),
(131,106,o),
(131,119,o),
(144,139,c),
(157,152,o),
(164,152,o),
(177,145,c),
(190,139,o),
(223,139,o),
(256,139,c),
(316,139,o),
(355,152,o),
(388,192,c),
(448,251,o),
(454,357,o),
(408,403,c),
(395,416,o),
(402,416,o),
(435,409,c),
(468,409,l),
(468,456,l),
(468,508,o),
(468,508,o),
(408,482,c)
);
},
{
attr = {
fillColor = (0,255);
};
closed = 1;
nodes = (
(349,350,o),
(355,244,o),
(309,205,c),
(296,185,o),
(283,185,o),
(256,185,c),
(237,185,o),
(223,185,o),
(210,205,c),
(144,271,o),
(177,423,o),
(256,423,c),
(276,423,o),
(289,416,o),
(303,403,c)
);
},
{
attr = {
fillColor = (0,255);
};
closed = 1;
nodes = (
(388,-26,o),
(402,-53,o),
(402,-79,c),
(402,-112,o),
(382,-152,o),
(362,-171,c),
(289,-218,o),
(177,-211,o),
(138,-158,c),
(118,-125,o),
(118,-59,o),
(138,-33,c),
(157,-6,l),
(256,-6,l),
(316,-6,o),
(362,-13,o),
(369,-20,c)
);
}
);
width = 519;
}
);
unicode = 103;
},
{
glyphname = h;
lastChange = "2023-01-30 16:49:38 +0000";
layers = (
{
layerId = m01;
shapes = (
{
attr = {
fillColor = (0,255);
};
closed = 1;
nodes = (
(12,693,o),
(5,680,o),
(45,666,c),
(65,666,o),
(78,653,o),
(78,647,c),
(84,640,o),
(84,495,o),
(84,336,c),
(84,39,l),
(58,26,l),
(38,20,o),
(25,13,o),
(25,6,c),
(25,0,o),
(51,0,o),
(144,0,c),
(236,0,o),
(263,0,o),
(263,6,c),
(263,13,o),
(243,20,o),
(230,26,c),
(197,33,l),
(197,191,l),
(197,350,l),
(230,363,l),
(269,376,o),
(335,383,o),
(362,369,c),
(395,350,o),
(401,330,o),
(408,185,c),
(408,105,o),
(408,59,o),
(401,46,c),
(401,39,o),
(381,33,o),
(368,26,c),
(355,20,o),
(342,13,o),
(342,6,c),
(342,0,o),
(362,0,o),
(461,0,c),
(553,0,o),
(573,0,o),
(573,6,c),
(573,13,o),
(566,20,o),
(546,26,c),
(513,33,l),
(513,191,l),
(507,343,o),
(507,350,o),
(494,383,c),
(447,468,o),
(322,482,o),
(216,402,c),
(197,389,l),
(197,567,l),
(197,746,l),
(183,746,l),
(170,746,o),
(137,739,o),
(98,726,c)
);
}
);
width = 579;
}
);
unicode = 104;
},
{
glyphname = i;
lastChange = "2023-01-30 16:49:38 +0000";
layers = (
{
layerId = m01;
shapes = (
{
attr = {
fillColor = (0,255);
};
closed = 1;
nodes = (
(58,613,o),
(71,574,o),
(111,554,c),
(163,534,o),
(216,587,o),
(183,646,c),
(177,666,o),
(163,673,o),
(130,673,c),
(111,673,o),
(104,666,o),
(91,653,c)
);
},
{
attr = {
fillColor = (0,255);
};
closed = 1;
nodes = (
(38,422,o),
(18,415,o),
(18,409,c),
(18,402,o),
(31,396,o),
(45,396,c),
(84,382,o),
(84,382,o),
(84,198,c),
(84,39,l),
(51,26,l),
(38,19,o),
(25,13,o),
(25,13,c),
(25,6,o),
(71,0,o),
(144,0,c),
(243,0,o),
(262,0,o),
(262,6,c),
(262,13,o),
(249,19,o),
(229,26,c),
(196,39,l),
(196,250,l),
(196,468,l),
(183,468,l),
(170,468,o),
(144,462,o),
(124,455,c)
);
}
);
width = 272;
}
);
unicode = 105;
},
{
glyphname = n;
lastChange = "2023-01-30 16:49:38 +0000";
layers = (
{
layerId = m01;
shapes = (
{
attr = {
fillColor = (0,255);
};
closed = 1;
nodes = (
(19,409,o),
(13,402,o),
(59,382,c),
(72,376,o),
(85,369,o),
(85,362,c),
(92,343,o),
(92,52,o),
(85,46,c),
(85,39,o),
(72,32,o),
(52,26,c),
(39,26,o),
(26,19,o),
(33,13,c),
(33,6,o),
(52,-1,o),
(145,-1,c),
(270,-1,o),
(290,6,o),
(231,26,c),
(198,39,l),
(198,138,l),
(198,191,o),
(198,263,o),
(198,296,c),
(204,356,l),
(237,369,l),
(277,376,o),
(330,382,o),
(363,369,c),
(402,349,o),
(402,329,o),
(409,191,c),
(409,118,o),
(409,59,o),
(409,52,c),
(402,39,o),
(396,32,o),
(376,26,c),
(349,19,o),
(343,19,o),
(343,13,c),
(349,6,o),
(349,-1,o),
(356,-1,c),
(363,-1,o),
(415,-1,o),
(475,-1,c),
(554,-1,o),
(580,6,o),
(580,13,c),
(580,13,o),
(567,19,o),
(554,26,c),
(534,32,o),
(521,39,o),
(514,39,c),
(514,46,o),
(514,118,o),
(514,197,c),
(514,349,l),
(495,382,l),
(481,409,o),
(468,422,o),
(448,435,c),
(389,468,o),
(303,455,o),
(237,415,c),
(217,402,o),
(204,395,o),
(198,395,c),
(198,395,o),
(198,409,o),
(198,422,c),
(198,461,o),
(191,461,o),
(105,435,c)
);
}
);
width = 593;
}
);
unicode = 110;
},
{
glyphname = o;
lastChange = "2023-01-30 16:49:38 +0000";
layers = (
{
layerId = m01;
shapes = (
{
attr = {
fillColor = (0,255);
};
closed = 1;
nodes = (
(181,462,o),
(141,442,o),
(121,422,c),
(16,330,o),
(9,145,o),
(108,52,c),
(154,6,o),
(187,-7,o),
(267,-7,c),
(346,-7,o),
(379,6,o),
(432,59,c),
(557,184,o),
(524,409,o),
(372,462,c),
(333,475,o),
(247,481,o),
(214,468,c)
);
},
{
attr = {
fillColor = (0,255);
};
closed = 1;
nodes = (
(405,369,o),
(432,158,o),
(346,72,c),
(306,33,o),
(267,26,o),
(220,59,c),
(201,72,o),
(187,85,o),
(174,118,c),
(154,165,o),
(148,165,o),
(148,237,c),
(148,316,o),
(154,336,o),
(187,382,c),
(214,422,o),
(267,435,o),
(313,415,c)
);
}
);
width = 547;
}
);
unicode = 111;
},
{
glyphname = p;
lastChange = "2023-01-30 16:49:38 +0000";
layers = (
{
layerId = m01;
shapes = (
{
attr = {
fillColor = (0,255);
};
closed = 1;
nodes = (
(62,428,o),
(23,415,o),
(23,402,c),
(23,402,o),
(36,389,o),
(56,382,c),
(82,369,l),
(82,118,l),
(82,-20,o),
(89,-159,o),
(89,-192,c),
(89,-245,l),
(56,-251,l),
(43,-258,o),
(29,-271,o),
(29,-271,c),
(29,-278,o),
(56,-284,o),
(142,-284,c),
(208,-284,o),
(260,-284,o),
(260,-284,c),
(267,-284,o),
(267,-278,o),
(267,-271,c),
(267,-271,o),
(254,-258,o),
(234,-258,c),
(201,-245,l),
(201,-119,l),
(201,6,l),
(241,-1,l),
(326,-14,o),
(406,19,o),
(458,72,c),
(505,125,o),
(524,171,o),
(524,250,c),
(524,316,o),
(511,349,o),
(472,395,c),
(412,461,o),
(320,468,o),
(227,415,c),
(214,402,o),
(194,395,o),
(194,395,c),
(194,395,o),
(194,409,o),
(194,428,c),
(188,461,o),
(188,461,o),
(155,455,c)
);
},
{
attr = {
fillColor = (0,255);
};
closed = 1;
nodes = (
(353,362,o),
(386,336,o),
(399,303,c),
(419,263,o),
(425,178,o),
(406,138,c),
(392,105,o),
(366,65,o),
(340,59,c),
(307,46,o),
(254,46,o),
(227,59,c),
(201,65,l),
(201,211,l),
(201,356,l),
(221,362,l),
(267,376,o),
(293,376,o),
(326,369,c)
);
}
);
width = 545;
}
);
unicode = 112;
},
{
glyphname = s;
lastChange = "2023-01-30 16:49:38 +0000";
layers = (
{
layerId = m01;
shapes = (
{
attr = {
fillColor = (0,255);
};
closed = 1;
nodes = (
(119,442,o),
(72,402,o),
(59,363,c),
(53,336,o),
(59,277,o),
(66,257,c),
(86,231,o),
(105,211,o),
(178,185,c),
(251,158,o),
(277,138,o),
(277,99,c),
(277,79,o),
(270,72,o),
(257,53,c),
(237,33,o),
(231,33,o),
(204,33,c),
(185,33,o),
(165,39,o),
(152,46,c),
(132,59,o),
(92,105,o),
(86,132,c),
(86,145,o),
(79,145,o),
(72,145,c),
(59,145,o),
(59,145,o),
(59,79,c),
(59,6,l),
(99,0,l),
(145,-20,o),
(218,-20,o),
(264,-7,c),
(350,26,o),
(389,125,o),
(350,198,c),
(336,224,o),
(303,251,o),
(251,264,c),
(165,297,o),
(145,310,o),
(145,350,c),
(145,389,o),
(171,416,o),
(211,416,c),
(237,416,o),
(251,409,o),
(270,389,c),
(284,383,o),
(297,356,o),
(310,336,c),
(317,310,o),
(323,303,o),
(336,303,c),
(343,303,o),
(343,317,o),
(343,369,c),
(343,435,l),
(310,449,l),
(264,462,o),
(211,462,o),
(171,455,c)
);
}
);
width = 412;
}
);
unicode = 115;
},
{
glyphname = v;
lastChange = "2023-01-30 16:49:38 +0000";
layers = (
{
layerId = m01;
shapes = (
{
attr = {
fillColor = (0,255);
};
closed = 1;
nodes = (
(2,429,o),
(2,422,o),
(22,416,c),
(41,402,o),
(48,383,o),
(140,171,c),
(213,0,l),
(239,0,l),
(266,0,l),
(299,79,l),
(312,125,o),
(345,204,o),
(371,264,c),
(418,389,o),
(424,402,o),
(444,416,c),
(457,416,o),
(464,429,o),
(464,435,c),
(464,442,o),
(457,442,o),
(378,442,c),
(292,442,o),
(279,435,o),
(319,416,c),
(332,409,o),
(345,396,o),
(345,389,c),
(345,376,o),
(299,224,o),
(266,138,c),
(259,125,o),
(253,138,o),
(213,257,c),
(180,330,o),
(160,389,o),
(160,396,c),
(160,402,o),
(167,409,o),
(180,416,c),
(187,416,o),
(200,429,o),
(200,435,c),
(200,442,o),
(187,442,o),
(107,442,c),
(55,442,o),
(8,442,o),
(8,442,c)
);
}
);
width = 468;
}
);
unicode = 118;
},
{
glyphname = y;
lastChange = "2023-01-30 16:49:38 +0000";
layers = (
{
layerId = m01;
shapes = (
{
attr = {
fillColor = (0,255);
};
closed = 1;
nodes = (
(11,428,o),
(17,422,o),
(24,409,c),
(37,395,o),
(64,336,o),
(130,184,c),
(176,72,o),
(222,-27,o),
(222,-34,c),
(229,-47,o),
(176,-179,o),
(156,-192,c),
(143,-205,o),
(143,-205,o),
(143,-192,c),
(143,-172,o),
(116,-146,o),
(97,-146,c),
(64,-146,o),
(44,-166,o),
(37,-185,c),
(24,-218,o),
(31,-238,o),
(50,-258,c),
(77,-284,o),
(123,-284,o),
(163,-258,c),
(202,-232,o),
(242,-139,o),
(380,250,c),
(427,382,o),
(433,389,o),
(453,409,c),
(466,415,o),
(473,422,o),
(466,428,c),
(466,442,o),
(453,442,o),
(387,442,c),
(295,442,o),
(281,435,o),
(328,409,c),
(347,395,o),
(347,395,o),
(347,362,c),
(347,343,o),
(281,118,o),
(275,105,c),
(268,98,o),
(262,112,o),
(215,237,c),
(156,402,o),
(156,395,o),
(182,409,c),
(196,415,o),
(209,422,o),
(209,428,c),
(202,435,o),
(189,435,o),
(110,442,c),
(50,442,o),
(11,435,o),
(11,435,c)
);
}
);
width = 470;
}
);
unicode = 121;
},
